<svg width="419" height="60" viewBox="0 0 419 60" fill="none" xmlns="http://www.w3.org/2000/svg">
<path d="M0.72 56.63C0.66 56.69 0.6 56.72 0.54 56.72C0.36 56.72 0.27 56.45 0.27 55.91C0.27 55.55 0.36 55.19 0.54 54.83C0.78 54.41 1.2 54.17 1.8 54.11C3.48 53.99 5.07 53.42 6.57 52.4C8.07 51.38 9.39 50.18 10.53 48.8C11.67 47.36 12.48 46.01 12.96 44.75L21.24 24.05C22.38 21.23 23.67 18.5 25.11 15.86C26.61 13.22 28.5 11.06 30.78 9.38C33.12 7.7 36.06 6.86 39.6 6.86C40.98 6.86 42.36 7.04 43.74 7.4C45.18 7.7 46.38 8.21 47.34 8.93C48.3 9.65 48.78 10.67 48.78 11.99C48.78 12.17 48.78 12.35 48.78 12.53C48.78 12.71 48.75 12.89 48.69 13.07C48.51 14.03 47.97 14.99 47.07 15.95C46.23 16.91 45.57 18.11 45.09 19.55C45.03 19.97 44.76 20.18 44.28 20.18C43.86 20.18 43.77 19.91 44.01 19.37C44.49 18.65 44.85 17.81 45.09 16.85C45.39 15.83 45.54 14.81 45.54 13.79C45.54 12.23 45.18 10.85 44.46 9.65C43.74 8.45 42.51 7.85 40.77 7.85C39.21 7.85 37.62 8.3 36 9.2C34.38 10.1 32.97 11.66 31.77 13.88L15.12 44.57C13.56 47.45 12.12 49.52 10.8 50.78C9.54 51.98 8.49 52.73 7.65 53.03H29.34C32.22 53.03 34.89 52.94 37.35 52.76C39.81 52.58 41.31 52.13 41.85 51.41C42.45 50.57 42.75 49.67 42.75 48.71C42.75 47.21 41.94 46.1 40.32 45.38C40.14 45.26 40.05 45.14 40.05 45.02C40.05 44.9 40.11 44.78 40.23 44.66C40.41 44.54 40.62 44.54 40.86 44.66C41.4 44.9 42.03 45.44 42.75 46.28C43.53 47.06 44.25 47.93 44.91 48.89C45.57 49.79 45.99 50.51 46.17 51.05C46.35 51.59 46.44 52.13 46.44 52.67C46.44 55.13 44.31 56.36 40.05 56.36C36.69 56.36 33.09 56.24 29.25 56C25.41 55.76 21.6 55.49 17.82 55.19C14.1 54.89 10.59 54.68 7.29 54.56C6.03 54.44 4.77 54.62 3.51 55.1C2.31 55.52 1.38 56.03 0.72 56.63ZM74.8687 56.27C74.2687 56.27 73.7587 56.15 73.3387 55.91C72.9187 55.67 72.7087 55.22 72.7087 54.56C72.7087 53.72 72.9187 52.76 73.3387 51.68C73.7587 50.6 74.2387 49.55 74.7787 48.53C75.3187 47.45 75.7987 46.58 76.2187 45.92C74.1187 48.14 71.9287 50.24 69.6487 52.22C68.5087 53.18 67.2487 54.08 65.8687 54.92C64.4887 55.76 63.0187 56.18 61.4587 56.18C60.8587 56.18 60.4387 56 60.1987 55.64C59.9587 55.22 59.8387 54.74 59.8387 54.2C59.8387 53.9 59.8687 53.69 59.9287 53.57C60.2287 51.23 60.9787 48.8 62.1787 46.28C63.3787 43.76 64.8487 41.39 66.5887 39.17C68.3287 36.95 70.0987 35.15 71.8987 33.77C73.9387 32.21 76.1887 31.43 78.6487 31.43H88.9988C89.2988 31.43 89.4488 31.55 89.4488 31.79C89.4488 32.27 89.1787 32.51 88.6387 32.51C88.0388 32.51 87.4387 32.9 86.8387 33.68C86.2387 34.4 85.7887 35 85.4888 35.48C85.0688 36.14 84.4087 37.25 83.5087 38.81C82.6087 40.37 81.6787 42.08 80.7187 43.94C79.8187 45.74 79.0387 47.42 78.3787 48.98C77.7187 50.54 77.3887 51.68 77.3887 52.4C77.3887 53.24 77.8087 53.66 78.6487 53.66C79.5487 53.66 80.5687 53.24 81.7087 52.4C82.8487 51.56 83.9887 50.54 85.1287 49.34C86.3287 48.08 87.4088 46.85 88.3688 45.65C89.3887 44.39 90.1987 43.4 90.7987 42.68C91.1587 43.04 91.1287 43.55 90.7087 44.21C90.3487 44.81 90.0187 45.29 89.7187 45.65C88.5188 47.21 87.1388 48.83 85.5787 50.51C84.0187 52.13 82.3087 53.51 80.4487 54.65C78.6487 55.73 76.7887 56.27 74.8687 56.27ZM65.1487 53.12C65.8687 53.12 66.8587 52.61 68.1187 51.59C69.4387 50.51 70.8487 49.19 72.3487 47.63C73.8487 46.01 75.2587 44.33 76.5787 42.59C77.8987 40.79 78.9787 39.17 79.8187 37.73C80.7187 36.23 81.1687 35.09 81.1687 34.31C81.1687 33.65 80.9587 33.2 80.5387 32.96C80.1787 32.72 79.6987 32.6 79.0987 32.6C78.1387 32.6 77.0887 32.96 75.9487 33.68C74.8687 34.34 73.9987 35 73.3387 35.66C72.6187 36.32 71.7487 37.37 70.7287 38.81C69.7687 40.19 68.8087 41.72 67.8487 43.4C66.8887 45.08 66.0787 46.7 65.4187 48.26C64.7587 49.82 64.4287 51.08 64.4287 52.04C64.4287 52.76 64.6687 53.12 65.1487 53.12ZM99.9738 57.35C99.7338 57.35 99.7338 57.08 99.9738 56.54C100.274 56 100.544 55.4 100.784 54.74C101.084 54.08 101.384 53.36 101.684 52.58C102.284 51.14 102.944 49.52 103.664 47.72C104.384 45.92 105.074 44.18 105.734 42.5C106.394 40.76 106.964 39.29 107.444 38.09C107.984 36.83 108.344 36.02 108.524 35.66C107.684 36.56 106.664 37.7 105.464 39.08C104.324 40.4 103.244 41.69 102.224 42.95C101.204 44.21 100.424 45.2 99.8838 45.92C99.7038 46.16 99.5538 46.28 99.4338 46.28C99.3138 46.28 99.2538 46.13 99.2538 45.83C99.2538 45.35 99.4038 44.9 99.7038 44.48C100.844 43.04 102.104 41.42 103.484 39.62C104.924 37.82 106.214 36.17 107.354 34.67C108.494 33.11 109.214 32.09 109.514 31.61C110.174 31.49 111.134 31.31 112.394 31.07C113.714 30.83 114.614 30.5 115.094 30.08C115.274 29.9 115.454 29.81 115.634 29.81C115.754 29.81 115.814 29.93 115.814 30.17C115.874 30.35 115.814 30.56 115.634 30.8C115.274 31.22 114.644 32.21 113.744 33.77C112.904 35.27 111.974 36.95 110.954 38.81C109.994 40.67 109.094 42.35 108.254 43.85C109.214 42.71 110.144 41.63 111.044 40.61C112.004 39.59 112.664 38.87 113.024 38.45C113.744 37.73 114.734 36.83 115.994 35.75C117.254 34.67 118.574 33.68 119.954 32.78C121.334 31.88 122.534 31.37 123.554 31.25C123.794 31.19 124.004 31.16 124.184 31.16C124.364 31.16 124.544 31.16 124.724 31.16C125.864 31.16 126.434 31.58 126.434 32.42C126.434 32.78 126.344 33.2 126.164 33.68C125.984 34.16 125.744 34.64 125.444 35.12C125.084 35.84 124.484 36.98 123.644 38.54C122.804 40.04 122.054 41.42 121.394 42.68L125.624 38.45C126.344 37.73 127.334 36.83 128.594 35.75C129.854 34.67 131.174 33.68 132.554 32.78C133.934 31.88 135.134 31.37 136.154 31.25C136.394 31.19 136.604 31.16 136.784 31.16C137.024 31.16 137.204 31.16 137.324 31.16C138.644 31.16 139.304 31.64 139.304 32.6C139.304 33.32 138.914 34.28 138.134 35.48C137.714 36.14 137.054 37.25 136.154 38.81C135.254 40.37 134.324 42.08 133.364 43.94C132.464 45.74 131.684 47.42 131.024 48.98C130.364 50.54 130.034 51.68 130.034 52.4C130.034 53.24 130.454 53.66 131.294 53.66C132.074 53.66 133.064 53.21 134.264 52.31C135.524 51.35 136.784 50.21 138.044 48.89C139.364 47.57 140.504 46.31 141.464 45.11C141.884 44.63 142.274 44.15 142.634 43.67C143.054 43.13 143.294 42.83 143.354 42.77C143.474 42.89 143.534 43.1 143.534 43.4C143.534 43.82 143.384 44.24 143.084 44.66C142.844 45.02 142.604 45.35 142.364 45.65C141.224 47.15 139.904 48.71 138.404 50.33C136.964 51.95 135.374 53.33 133.634 54.47C131.894 55.55 130.034 56.18 128.054 56.36C127.454 56.42 126.854 56.3 126.254 56C125.654 55.7 125.354 55.22 125.354 54.56C125.354 53.72 125.564 52.73 125.984 51.59C126.464 50.45 126.974 49.31 127.514 48.17C128.114 47.03 128.564 46.1 128.864 45.38C129.944 43.28 130.934 41.3 131.834 39.44C132.734 37.58 133.364 36.26 133.724 35.48C133.904 35.12 133.994 34.82 133.994 34.58C133.994 34.16 133.664 34.13 133.004 34.49C132.344 34.85 131.534 35.39 130.574 36.11C129.674 36.83 128.834 37.55 128.054 38.27C127.274 38.93 126.764 39.38 126.524 39.62C125.504 40.64 124.274 42.02 122.834 43.76C121.454 45.5 120.164 47.33 118.964 49.25C117.764 51.11 116.924 52.85 116.444 54.47C115.844 55.01 115.274 55.28 114.734 55.28C114.314 55.28 113.954 55.13 113.654 54.83C113.414 54.53 113.294 54.17 113.294 53.75C113.294 52.55 113.654 51.14 114.374 49.52C115.154 47.84 115.784 46.46 116.264 45.38C117.344 43.28 118.334 41.3 119.234 39.44C120.134 37.58 120.764 36.26 121.124 35.48C121.304 35.12 121.394 34.82 121.394 34.58C121.394 34.16 121.064 34.13 120.404 34.49C119.744 34.85 118.934 35.39 117.974 36.11C117.074 36.83 116.234 37.55 115.454 38.27C114.674 38.93 114.164 39.38 113.924 39.62C112.484 41.12 111.134 42.65 109.874 44.21C108.674 45.77 107.654 47.45 106.814 49.25C106.334 50.33 105.824 51.53 105.284 52.85C104.744 54.17 104.294 55.28 103.934 56.18C103.154 56.24 102.374 56.45 101.594 56.81C100.814 57.17 100.274 57.35 99.9738 57.35ZM187.244 59.42C185.384 59.42 183.614 58.88 181.934 57.8C180.254 56.78 178.994 55.19 178.154 53.03C177.854 52.25 177.644 51.41 177.524 50.51C177.464 49.61 177.434 48.74 177.434 47.9V46.73C177.434 46.31 177.464 45.92 177.524 45.56C177.644 45.2 177.884 45.02 178.244 45.02C178.364 45.02 178.424 45.08 178.424 45.2C178.424 45.56 178.394 45.92 178.334 46.28C178.334 46.64 178.334 47 178.334 47.36C178.334 50.18 179.024 52.34 180.404 53.84C181.844 55.28 183.614 56 185.714 56C187.814 56 189.854 55.4 191.834 54.2C193.814 52.94 195.644 51.38 197.324 49.52C198.284 48.5 199.364 46.97 200.564 44.93C201.824 42.83 203.114 40.49 204.434 37.91C205.814 35.27 207.194 32.57 208.574 29.81C209.954 26.99 211.274 24.29 212.534 21.71C213.794 19.07 214.934 16.76 215.954 14.78C216.914 12.92 218.204 11.45 219.824 10.37C221.444 9.29 222.824 8.54 223.964 8.12C223.544 8.12 222.644 8.15 221.264 8.21C219.944 8.27 218.534 8.33 217.034 8.39C215.534 8.45 214.334 8.51 213.434 8.57C211.154 8.69 208.844 8.96 206.504 9.38C204.164 9.8 202.094 10.37 200.294 11.09C198.494 11.81 197.204 12.74 196.424 13.88C195.884 14.66 195.614 15.56 195.614 16.58C195.614 18.62 196.514 20.09 198.314 20.99C198.434 21.11 198.494 21.17 198.494 21.17C198.494 21.35 198.344 21.53 198.044 21.71C197.744 21.83 197.444 21.86 197.144 21.8C196.664 21.5 196.064 21.02 195.344 20.36C194.684 19.64 194.054 18.89 193.454 18.11C192.914 17.33 192.554 16.67 192.374 16.13C192.074 15.23 191.924 14.51 191.924 13.97C191.924 12.53 192.464 11.36 193.544 10.46C194.624 9.5 196.034 8.78 197.774 8.3C199.514 7.76 201.374 7.4 203.354 7.22C205.334 6.98 207.254 6.83 209.114 6.77C210.974 6.71 212.564 6.68 213.884 6.68C216.944 6.68 219.674 6.68 222.074 6.68C224.534 6.62 226.784 6.59 228.824 6.59C230.924 6.59 232.934 6.62 234.854 6.68C236.834 6.74 238.904 6.83 241.064 6.95C242.624 7.01 243.674 7.31 244.214 7.85C244.814 8.39 245.114 9.05 245.114 9.83C245.114 10.85 244.784 11.96 244.124 13.16C243.464 14.36 242.864 15.47 242.324 16.49C242.084 16.97 241.694 17.33 241.154 17.57C240.614 17.75 240.404 17.57 240.524 17.03C240.644 16.49 240.764 15.92 240.884 15.32C241.004 14.66 241.064 14.03 241.064 13.43C241.064 12.35 240.854 11.39 240.434 10.55C240.014 9.65 239.294 9.02 238.274 8.66C237.674 8.42 236.954 8.27 236.114 8.21C235.274 8.09 234.374 8.03 233.414 8.03C231.614 8.03 229.814 8.21 228.014 8.57C226.214 8.93 224.804 9.5 223.784 10.28C222.524 11.24 221.234 12.8 219.914 14.96C218.654 17.12 217.454 19.43 216.314 21.89C215.174 24.35 214.154 26.51 213.254 28.37C213.194 28.49 213.164 28.67 213.164 28.91C213.164 29.21 213.434 29.36 213.974 29.36C214.814 29.36 215.984 29.36 217.484 29.36C219.044 29.36 220.664 29.39 222.344 29.45C224.024 29.45 225.464 29.45 226.664 29.45C227.984 29.45 229.034 29.54 229.814 29.72C230.594 29.84 230.984 30.23 230.984 30.89C230.984 31.13 230.834 31.61 230.534 32.33C230.114 33.29 229.634 34.13 229.094 34.85C228.614 35.51 228.224 36.2 227.924 36.92C227.864 37.16 227.594 37.37 227.114 37.55C226.634 37.73 226.454 37.7 226.574 37.46C226.814 36.92 227.054 36.26 227.294 35.48C227.594 34.64 227.744 33.92 227.744 33.32C227.744 32.36 227.324 31.88 226.484 31.88H212.444C211.904 31.88 211.484 32.12 211.184 32.6C209.444 36.08 207.554 39.8 205.514 43.76C203.534 47.72 201.224 51.11 198.584 53.93C197.084 55.55 195.344 56.87 193.364 57.89C191.384 58.91 189.344 59.42 187.244 59.42ZM246.287 56.18C244.487 56.18 243.257 55.76 242.597 54.92C241.937 54.02 241.607 52.94 241.607 51.68C241.607 50 241.967 48.2 242.687 46.28C243.467 44.36 244.097 42.86 244.577 41.78C243.797 42.62 243.047 43.43 242.327 44.21C241.607 44.99 241.097 45.56 240.797 45.92C240.617 46.16 240.467 46.28 240.347 46.28C240.227 46.28 240.167 46.13 240.167 45.83C240.167 45.35 240.317 44.9 240.617 44.48C241.457 43.4 242.417 42.26 243.497 41.06C244.577 39.86 245.627 38.6 246.647 37.28C247.847 35.06 249.167 32.48 250.607 29.54C252.107 26.54 253.637 23.48 255.197 20.36C256.817 17.18 258.377 14.27 259.877 11.63C261.437 8.93 262.817 6.77 264.017 5.15C265.037 4.73 265.997 4.19 266.897 3.53C267.857 2.87 268.787 2.27 269.687 1.73C270.647 1.13 271.637 0.829997 272.657 0.829997C273.317 0.829997 273.797 1.01 274.097 1.37C274.457 1.73 274.697 2.15 274.817 2.63C274.877 2.81 274.907 3.14 274.907 3.62C274.907 5 274.427 6.68 273.467 8.66C272.567 10.64 271.487 12.59 270.227 14.51C269.027 16.37 267.977 17.9 267.077 19.1C264.677 22.46 262.217 25.52 259.697 28.28C257.177 30.98 254.897 33.26 252.857 35.12C250.877 36.92 249.437 38.24 248.537 39.08C248.117 39.86 247.607 40.91 247.007 42.23C246.467 43.49 245.987 44.84 245.567 46.28C245.147 47.66 244.937 48.95 244.937 50.15C244.937 51.17 245.177 52.04 245.657 52.76C246.137 53.42 246.947 53.75 248.087 53.75C248.267 53.75 248.447 53.75 248.627 53.75C248.807 53.75 249.017 53.72 249.257 53.66C250.277 53.48 251.387 52.91 252.587 51.95C253.787 50.99 254.987 49.88 256.187 48.62C257.387 47.36 258.467 46.16 259.427 45.02C259.847 44.54 260.237 44.09 260.597 43.67C260.957 43.19 261.197 42.86 261.317 42.68C261.737 43.1 261.707 43.64 261.227 44.3C260.807 44.9 260.447 45.41 260.147 45.83C259.727 46.37 259.127 47.12 258.347 48.08C257.567 48.98 256.667 49.97 255.647 51.05C254.507 52.19 253.097 53.33 251.417 54.47C249.737 55.61 248.027 56.18 246.287 56.18ZM250.067 35.48C251.927 33.92 254.267 31.7 257.087 28.82C259.967 25.88 262.787 22.34 265.547 18.2C265.847 17.72 266.327 16.91 266.987 15.77C267.707 14.63 268.427 13.34 269.147 11.9C269.927 10.4 270.587 8.96 271.127 7.58C271.667 6.14 271.937 4.91 271.937 3.88999C271.937 2.93 271.667 2.45 271.127 2.45C270.467 2.45 269.597 3.02 268.517 4.16C267.257 5.48 265.817 7.43 264.197 10.01C262.637 12.53 260.987 15.35 259.247 18.47C257.507 21.59 255.827 24.65 254.207 27.65C252.647 30.65 251.267 33.26 250.067 35.48ZM271.385 56.18C270.425 56.18 269.555 56 268.775 55.64C268.055 55.22 267.695 54.35 267.695 53.03C267.695 50.93 268.235 48.83 269.315 46.73C270.395 44.57 271.505 42.68 272.645 41.06C273.665 39.68 274.805 38.39 276.065 37.19C277.385 35.93 278.795 34.85 280.295 33.95C281.255 33.35 282.545 32.72 284.165 32.06C285.845 31.34 287.255 30.98 288.395 30.98C289.355 30.98 290.195 31.25 290.915 31.79C291.635 32.27 291.995 33.17 291.995 34.49C291.995 36.53 291.455 38.63 290.375 40.79C289.355 42.89 288.275 44.75 287.135 46.37C286.595 47.09 286.055 47.78 285.515 48.44C284.975 49.04 284.375 49.67 283.715 50.33C285.935 50.33 287.975 49.7 289.835 48.44C291.695 47.12 293.315 45.53 294.695 43.67L294.875 43.49C295.055 43.49 295.145 43.67 295.145 44.03C295.145 44.45 295.025 44.84 294.785 45.2C293.585 46.88 292.085 48.38 290.285 49.7C288.485 50.96 286.445 51.59 284.165 51.59C283.925 51.59 283.685 51.59 283.445 51.59C283.205 51.59 282.965 51.56 282.725 51.5C279.365 54.62 275.585 56.18 271.385 56.18ZM273.725 54.65C274.565 54.65 275.465 54.35 276.425 53.75C277.445 53.15 278.225 52.58 278.765 52.04C279.785 51.02 280.715 49.94 281.555 48.8C282.395 47.6 283.175 46.4 283.895 45.2C284.735 43.76 285.575 42.05 286.415 40.07C287.255 38.09 287.675 36.23 287.675 34.49C287.675 33.11 287.195 32.42 286.235 32.42C285.455 32.42 284.495 32.75 283.355 33.41C282.275 34.07 281.465 34.67 280.925 35.21C278.885 37.31 277.175 39.59 275.795 42.05C275.015 43.43 274.175 45.05 273.275 46.91C272.375 48.77 271.925 50.48 271.925 52.04C271.925 52.28 271.925 52.52 271.925 52.76C271.985 52.94 272.045 53.15 272.105 53.39C272.345 54.23 272.885 54.65 273.725 54.65ZM311.494 56.54C310.654 56.54 309.934 56.24 309.334 55.64C308.734 55.04 308.434 53.99 308.434 52.49C308.434 51.17 308.524 49.61 308.704 47.81C308.944 46.01 309.274 44.18 309.694 42.32C310.114 40.4 310.594 38.72 311.134 37.28C310.114 38.78 308.974 40.34 307.714 41.96C306.454 43.52 305.404 44.84 304.564 45.92C304.384 46.16 304.234 46.28 304.114 46.28C303.994 46.28 303.934 46.13 303.934 45.83C303.934 45.35 304.084 44.9 304.384 44.48C305.644 42.74 307.054 40.76 308.614 38.54C310.234 36.32 311.614 34.31 312.754 32.51C313.414 32.39 314.194 32.21 315.094 31.97C316.054 31.73 316.744 31.4 317.164 30.98C317.464 30.8 317.644 30.71 317.704 30.71C317.884 30.71 317.974 30.83 317.974 31.07C317.974 31.25 317.884 31.46 317.704 31.7C317.164 32.48 316.564 33.71 315.904 35.39C315.244 37.01 314.614 38.84 314.014 40.88C313.414 42.86 312.904 44.81 312.484 46.73C312.124 48.65 311.944 50.24 311.944 51.5C311.944 52.46 312.094 53.12 312.394 53.48C312.754 53.84 313.144 54.02 313.564 54.02C314.404 54.02 315.274 53.63 316.174 52.85C317.134 52.07 318.064 51.11 318.964 49.97C319.924 48.83 320.764 47.72 321.484 46.64C322.204 45.56 322.744 44.72 323.104 44.12C324.304 42.2 325.444 40.13 326.524 37.91C327.664 35.63 328.624 33.83 329.404 32.51C330.064 32.39 330.844 32.21 331.744 31.97C332.704 31.73 333.424 31.4 333.904 30.98C334.084 30.8 334.234 30.71 334.354 30.71C334.534 30.71 334.624 30.83 334.624 31.07C334.684 31.25 334.624 31.46 334.444 31.7C333.904 32.48 333.334 33.68 332.734 35.3C332.134 36.92 331.534 38.72 330.934 40.7C330.394 42.62 329.944 44.54 329.584 46.46C329.224 48.32 329.044 49.91 329.044 51.23C329.044 53.03 329.704 53.93 331.024 53.93C331.924 53.93 332.914 53.6 333.994 52.94C335.134 52.28 336.064 51.59 336.784 50.87C338.824 48.77 340.534 46.7 341.914 44.66C343.294 42.62 344.464 40.28 345.424 37.64C345.784 36.74 346.024 35.96 346.144 35.3C346.264 34.58 346.324 33.92 346.324 33.32C346.324 32.48 346.174 31.82 345.874 31.34C345.634 30.8 345.364 30.5 345.064 30.44C344.764 30.32 344.614 30.17 344.614 29.99C344.614 29.87 344.764 29.75 345.064 29.63C345.364 29.45 345.694 29.39 346.054 29.45C347.014 29.69 347.824 30.14 348.484 30.8C349.204 31.4 349.564 32.3 349.564 33.5C349.564 34.46 349.354 35.48 348.934 36.56C348.094 38.78 346.864 41.09 345.244 43.49C343.684 45.83 341.914 48.02 339.934 50.06C337.954 52.1 335.884 53.75 333.724 55.01C332.944 55.43 332.134 55.79 331.294 56.09C330.454 56.39 329.644 56.54 328.864 56.54C327.904 56.54 327.064 56.24 326.344 55.64C325.684 55.04 325.354 53.99 325.354 52.49C325.354 50.93 325.504 49.07 325.804 46.91C326.164 44.75 326.614 42.65 327.154 40.61C326.734 41.27 326.314 41.99 325.894 42.77C325.534 43.49 325.114 44.24 324.634 45.02C323.134 47.18 321.574 49.22 319.954 51.14C318.394 53.06 317.044 54.35 315.904 55.01C315.184 55.43 314.434 55.79 313.654 56.09C312.874 56.39 312.154 56.54 311.494 56.54ZM364.594 56.72C362.134 56.72 360.424 56.24 359.464 55.28C358.504 54.32 358.024 53.15 358.024 51.77C358.024 50.03 358.474 48.17 359.374 46.19C360.334 44.21 361.234 42.53 362.074 41.15C363.034 39.71 364.324 38.21 365.944 36.65C367.564 35.09 369.334 33.77 371.254 32.69C373.174 31.61 375.034 31.07 376.834 31.07C378.394 31.07 379.474 31.46 380.074 32.24C380.674 32.96 380.974 33.83 380.974 34.85C380.974 36.71 380.404 38.24 379.264 39.44C378.184 40.64 376.834 41.63 375.214 42.41C373.594 43.13 372.034 43.73 370.534 44.21C369.634 44.45 368.584 44.69 367.384 44.93C366.184 45.17 365.044 45.29 363.964 45.29C363.544 46.37 363.214 47.42 362.974 48.44C362.734 49.46 362.614 50.39 362.614 51.23C362.614 52.25 362.854 53.09 363.334 53.75C363.874 54.41 364.744 54.74 365.944 54.74C366.424 54.74 366.994 54.68 367.654 54.56C368.314 54.44 369.034 54.26 369.814 54.02C371.614 53.42 373.384 52.46 375.124 51.14C376.864 49.82 378.454 48.41 379.894 46.91C381.394 45.35 382.534 44.06 383.314 43.04C383.494 43.22 383.584 43.43 383.584 43.67C383.584 43.97 383.374 44.45 382.954 45.11C381.754 46.79 380.194 48.53 378.274 50.33C376.354 52.13 374.224 53.66 371.884 54.92C369.544 56.12 367.114 56.72 364.594 56.72ZM364.684 43.49C365.464 43.55 366.334 43.55 367.294 43.49C368.314 43.37 369.304 43.16 370.264 42.86C372.724 42.14 374.494 41 375.574 39.44C376.714 37.82 377.284 36.38 377.284 35.12C377.284 34.4 377.134 33.8 376.834 33.32C376.534 32.84 376.054 32.6 375.394 32.6C373.654 32.6 372.094 33.26 370.714 34.58C369.334 35.84 368.134 37.31 367.114 38.99C366.094 40.67 365.284 42.17 364.684 43.49ZM392.766 57.26C392.526 57.26 392.526 57.02 392.766 56.54C393.066 56 393.336 55.4 393.576 54.74C393.876 54.08 394.176 53.36 394.476 52.58C395.076 51.14 395.736 49.52 396.456 47.72C397.176 45.92 397.866 44.18 398.526 42.5C399.186 40.76 399.756 39.29 400.236 38.09C400.776 36.83 401.136 36.02 401.316 35.66C400.476 36.56 399.456 37.7 398.256 39.08C397.116 40.4 396.036 41.69 395.016 42.95C393.996 44.21 393.216 45.2 392.676 45.92C392.496 46.16 392.346 46.28 392.226 46.28C392.106 46.28 392.046 46.13 392.046 45.83C392.046 45.35 392.196 44.9 392.496 44.48C393.636 43.04 394.896 41.42 396.276 39.62C397.716 37.82 399.006 36.17 400.146 34.67C401.286 33.11 402.006 32.09 402.306 31.61C402.966 31.49 403.926 31.31 405.186 31.07C406.506 30.83 407.406 30.5 407.886 30.08C408.066 29.9 408.246 29.81 408.426 29.81C408.546 29.81 408.606 29.93 408.606 30.17C408.666 30.35 408.606 30.56 408.426 30.8C408.066 31.16 407.526 31.94 406.806 33.14C406.146 34.34 405.396 35.72 404.556 37.28C403.716 38.84 402.906 40.34 402.126 41.78C402.726 40.88 403.506 39.83 404.466 38.63C405.486 37.37 406.596 36.17 407.796 35.03C408.996 33.83 410.196 32.84 411.396 32.06C412.656 31.28 413.826 30.89 414.906 30.89C415.686 30.89 416.346 31.07 416.886 31.43C417.426 31.73 417.846 32.3 418.146 33.14C418.326 33.56 418.416 34.04 418.416 34.58C418.416 35.6 418.146 36.59 417.606 37.55C417.126 38.45 416.766 39.14 416.526 39.62C416.466 39.8 416.256 39.98 415.896 40.16C415.536 40.28 415.386 40.22 415.446 39.98C415.506 39.68 415.536 39.38 415.536 39.08C415.596 38.78 415.626 38.45 415.626 38.09C415.626 37.07 415.416 36.14 414.996 35.3C414.636 34.46 413.946 34.04 412.926 34.04C411.966 34.04 410.796 34.64 409.416 35.84C408.036 37.04 406.656 38.42 405.276 39.98C403.536 42.02 402.156 43.97 401.136 45.83C400.116 47.63 399.276 49.4 398.616 51.14C398.256 52.1 397.896 53.06 397.536 54.02C397.176 54.92 396.906 55.64 396.726 56.18C395.946 56.24 395.166 56.42 394.386 56.72C393.606 57.08 393.066 57.26 392.766 57.26Z" fill="#2754F2"/>
</svg>
