<svg width="708" height="108" viewBox="0 0 708 108" fill="none" xmlns="http://www.w3.org/2000/svg">
<path d="M68.9365 107.152C68.6805 107.152 68.5098 106.853 68.4245 106.256C68.4245 105.915 68.4672 105.317 68.5525 104.464C68.7232 103.696 68.8938 102.715 69.0645 101.52C69.4912 98.2773 70.0885 94.9493 70.8565 91.536C71.6245 88.208 72.4778 84.752 73.4165 81.168C72.2218 80.2293 71.0698 79.376 69.9605 78.608C68.9365 77.84 67.9552 77.1573 67.0165 76.56C59.5072 88.9333 50.5472 95.12 40.1365 95.12C38.4298 95.12 36.6805 94.9493 34.8885 94.608C33.1818 94.352 31.3472 93.9253 29.3845 93.328C27.9338 92.816 27.2085 92.304 27.2085 91.792C27.2085 91.536 27.4645 91.408 27.9765 91.408C28.2325 91.408 28.7018 91.4933 29.3845 91.664C32.7125 92.688 35.9125 93.2 38.9845 93.2C48.7978 93.2 56.9045 86.7573 63.3045 73.872C55.1978 68.3253 47.9872 64.016 41.6725 60.944C36.5525 58.4693 31.2618 57.232 25.8005 57.232C14.1952 57.232 6.89916 61.4987 3.9125 70.032C3.31516 71.7387 3.0165 73.488 3.0165 75.28C3.0165 80.2293 5.0645 84.9653 9.1605 89.488C12.9152 93.584 16.6698 96.016 20.4245 96.784C21.3632 96.9547 21.8325 97.2533 21.8325 97.68C21.8325 98.2773 21.2778 98.576 20.1685 98.576C19.9978 98.576 19.7418 98.576 19.4005 98.576C19.1445 98.576 18.8458 98.5333 18.5045 98.448C14.2378 97.68 10.3125 95.504 6.7285 91.92C2.80316 87.7387 0.840497 82.9173 0.840497 77.456C0.840497 74.7253 1.3525 71.9093 2.3765 69.008C4.4245 63.4613 7.96583 59.1947 13.0005 56.208C17.7792 53.2213 23.2405 51.728 29.3845 51.728C34.2485 51.728 39.0272 52.7093 43.7205 54.672C50.2912 57.3173 57.7152 61.7547 65.9925 67.984C66.4192 67.1307 66.8885 66.064 67.4005 64.784C67.9125 63.4187 68.5525 61.84 69.3205 60.048L71.1125 55.952C65.7365 54.8427 60.7018 52.7093 56.0085 49.552C48.0725 44.176 44.1045 37.52 44.1045 29.584C44.1045 26 45.0005 23.0133 46.7925 20.624C48.6698 18.2347 51.1445 17.04 54.2165 17.04C56.3498 17.04 58.2698 17.68 59.9765 18.96C61.6832 20.24 62.5365 21.904 62.5365 23.952V24.336C62.5365 25.616 61.9392 26.256 60.7445 26.256C59.0378 26.256 58.1418 25.4027 58.0565 23.696C57.3738 22.5013 56.1365 21.904 54.3445 21.904C54.0032 21.904 53.7045 21.9467 53.4485 22.032C53.1925 22.032 52.8938 22.0747 52.5525 22.16C48.2005 23.0133 46.0245 25.5307 46.0245 29.712C46.0245 36.9653 49.5658 43.1093 56.6485 48.144C61.0005 51.3013 66.0778 53.2213 71.8805 53.904C82.2058 29.072 91.8485 13.1147 100.809 6.032C105.843 2.02133 110.75 0.0159988 115.529 0.0159988C119.795 0.0159988 123.294 1.63733 126.025 4.88C128.755 8.03733 130.12 12.0053 130.12 16.784C130.12 23.696 127.518 30.1813 122.312 36.24C111.987 48.528 99.1445 55.312 83.7845 56.592L81.0965 63.504C81.5232 63.6747 82.1632 63.9307 83.0165 64.272C83.9552 64.6133 84.4672 64.9973 84.5525 65.424C84.6378 65.68 82.6752 67.4293 78.6645 70.672L78.5365 70.544C78.1952 71.4827 77.8538 72.464 77.5125 73.488C77.2565 74.512 76.9578 75.4933 76.6165 76.432C82.7605 81.3813 88.2645 85.52 93.1285 88.848C97.9925 92.0907 102.216 94.608 105.8 96.4C108.787 97.7653 112.073 98.448 115.657 98.448C118.046 98.448 120.265 98.1493 122.312 97.552C124.36 97.04 126.281 96.1867 128.073 94.992C131.657 92.688 133.449 89.7013 133.449 86.032C133.449 85.6053 133.363 85.008 133.193 84.24C133.022 83.3867 132.937 82.7467 132.937 82.32C132.937 81.6373 133.15 81.296 133.577 81.296C134.601 81.296 135.113 83.1307 135.113 86.8C135.113 91.152 133.15 94.736 129.225 97.552C125.299 100.368 120.393 101.776 114.505 101.776C109.043 101.776 103.795 100.453 98.7605 97.808C96.5418 96.6987 93.4272 94.8213 89.4165 92.176C85.4912 89.616 80.6272 86.288 74.8245 82.192C73.4592 86.7147 72.3498 90.9387 71.4965 94.864C70.6432 98.8747 70.0032 102.629 69.5765 106.128C69.4058 106.811 69.1925 107.152 68.9365 107.152ZM77.5125 54.16C78.4512 54.0747 79.3898 53.9893 80.3285 53.904C81.2672 53.8187 82.1632 53.7333 83.0165 53.648C84.7232 49.7227 86.5152 45.6693 88.3925 41.488C90.3552 37.3067 92.4032 33.0827 94.5365 28.816C101.534 15.4187 106.313 8.63466 108.873 8.464C109.47 8.464 109.769 8.76266 109.769 9.35999C109.769 9.70133 109.598 9.99999 109.257 10.256C106.355 12.56 102.857 17.296 98.7605 24.464C94.7498 31.632 90.2272 41.232 85.1925 53.264C99.2725 50.448 110.664 43.5787 119.368 32.656C124.233 26.5973 126.665 20.624 126.665 14.736C126.665 10.9813 125.683 7.90933 123.721 5.52C121.843 3.13066 119.283 1.936 116.041 1.936C111.859 1.936 107.337 4.06933 102.473 8.336C97.6085 12.5173 92.9152 19.1733 88.3925 28.304C87.5392 30.096 86.1738 33.168 84.2965 37.52C82.5045 41.7867 80.2432 47.3333 77.5125 54.16ZM75.2085 75.28L77.1285 69.392C76.6165 68.88 76.2752 68.368 76.1045 67.856C75.9338 67.344 75.8058 66.9173 75.7205 66.576C75.7205 65.8933 76.1045 64.8693 76.8725 63.504C77.7258 62.0533 78.7072 61.328 79.8165 61.328H79.9445C80.2858 60.6453 80.5845 59.92 80.8405 59.152C81.1818 58.2987 81.5232 57.4453 81.8645 56.592C79.9872 56.6773 78.1952 56.6773 76.4885 56.592C75.2938 59.4933 74.1418 62.1813 73.0325 64.656C71.9232 67.0453 70.8992 69.2213 69.9605 71.184C70.6432 71.6107 71.4112 72.1653 72.2645 72.848C73.1178 73.5307 74.0992 74.3413 75.2085 75.28ZM145.148 90.768C141.65 90.768 139.9 89.0613 139.9 85.648C139.9 82.4053 142.247 77.8827 146.94 72.08C151.207 66.704 154.919 62.992 158.076 60.944C161.234 58.896 164.178 57.872 166.908 57.872C170.151 57.872 171.772 58.8107 171.772 60.688C171.772 61.1147 171.346 61.7547 170.492 62.608C169.639 63.376 169.17 63.8453 169.084 64.016C167.463 66.6613 166.652 72.0373 166.652 80.144C166.652 84.8373 167.676 87.184 169.724 87.184C171.602 87.184 173.778 86.0747 176.252 83.856C178.727 81.6373 181.031 79.1627 183.164 76.432C183.42 76.176 183.634 76.048 183.804 76.048C184.146 76.048 184.316 76.2613 184.316 76.688C184.316 76.8587 184.231 77.1573 184.06 77.584C183.975 78.0107 183.847 78.352 183.676 78.608C180.178 83.3013 177.148 86.4587 174.588 88.08C172.114 89.7013 169.682 90.512 167.292 90.512C163.452 90.512 161.575 86.416 161.66 78.224C160.039 81.1253 157.692 83.856 154.62 86.416C151.036 89.3173 147.879 90.768 145.148 90.768ZM148.604 87.312C150.055 87.312 151.591 86.7147 153.212 85.52C158.247 81.5093 161.532 74 163.068 62.992C162.812 62.992 162.642 62.9493 162.556 62.864C160.85 62.864 158.588 63.888 155.772 65.936C153.383 67.5573 151.463 69.3067 150.012 71.184C146.599 75.6213 144.892 79.4613 144.892 82.704C144.892 85.776 146.13 87.312 148.604 87.312ZM222.795 91.92C222.027 91.92 221.43 91.28 221.003 90V87.568C221.003 76.9867 219.638 71.696 216.907 71.696C215.115 71.696 212.385 74.5973 208.715 80.4C207.691 81.936 206.667 83.472 205.643 85.008C204.705 86.544 203.766 88.08 202.827 89.616C202.315 89.7867 201.931 89.872 201.675 89.872C200.822 89.872 200.395 89.232 200.395 87.952V87.568L201.931 82.448C203.723 77.072 205.046 72.8053 205.899 69.648C206.753 66.4053 207.179 64.272 207.179 63.248C207.179 62.9067 207.137 62.6933 207.051 62.608C208.758 61.072 210.379 60.304 211.915 60.304C212.683 60.304 212.982 60.5173 212.811 60.944L210.507 73.872C211.361 72.6773 213.11 71.184 215.755 69.392C217.121 68.4533 218.273 67.7707 219.211 67.344C220.235 66.9173 221.046 66.704 221.643 66.704C224.289 66.704 225.782 72.0373 226.123 82.704C227.062 80.9973 228.299 78.864 229.835 76.304C231.457 73.744 233.334 70.8 235.467 67.472C236.662 65.8507 237.942 65.04 239.307 65.04C240.587 65.04 241.355 65.8507 241.611 67.472C241.867 70.8 242.123 73.9147 242.379 76.816C242.635 79.632 243.19 81.8933 244.043 83.6C244.897 85.3067 246.347 86.2027 248.395 86.288C250.955 86.288 253.473 85.3493 255.947 83.472C258.507 81.5093 260.811 79.1627 262.859 76.432C263.286 75.7493 263.713 75.408 264.139 75.408C264.395 75.408 264.523 75.7493 264.523 76.432C264.523 76.6027 264.353 76.9867 264.011 77.584C263.67 78.096 263.414 78.4373 263.243 78.608C261.793 80.7413 260.086 82.832 258.123 84.88C256.246 86.8427 254.241 88.464 252.107 89.744C249.974 90.9387 247.841 91.536 245.707 91.536C242.55 91.536 240.246 89.8293 238.795 86.416C237.345 83.0027 236.449 78.1813 236.107 71.952C234.315 73.5733 232.395 76.4747 230.347 80.656C229.067 83.0453 228.001 85.0507 227.147 86.672C226.294 88.208 225.654 89.3173 225.227 90C224.374 91.28 223.563 91.92 222.795 91.92ZM352.227 96.784C346.339 96.784 340.793 95.2907 335.587 92.304C329.955 88.8053 326.201 84.4533 324.323 79.248C323.641 77.3707 323.129 75.664 322.787 74.128C322.446 72.5067 322.275 71.1413 322.275 70.032C322.275 67.3013 323.257 65.936 325.219 65.936C325.817 65.936 326.158 66.2347 326.243 66.832C326.67 68.4533 327.054 69.8187 327.395 70.928C327.737 72.0373 328.035 72.9333 328.291 73.616C328.718 74.8107 329.273 75.92 329.955 76.944C330.638 77.968 331.363 78.9493 332.131 79.888C336.142 84.4107 341.518 86.672 348.259 86.672C349.454 86.672 350.862 86.416 352.483 85.904C354.275 85.392 355.299 85.136 355.555 85.136C355.811 85.2213 355.939 85.3493 355.939 85.52C355.939 87.056 352.697 87.824 346.211 87.824C336.995 87.824 330.937 84.6667 328.035 78.352C333.155 89.7867 341.177 95.504 352.099 95.504C363.875 95.504 373.134 90.3413 379.875 80.016C382.009 76.7733 384.142 72.3787 386.275 66.832C388.409 61.2 390.585 54.416 392.803 46.48C391.95 46.3947 390.883 46.3093 389.603 46.224C388.409 46.0533 387.086 45.84 385.635 45.584C384.953 55.056 380.729 62.2667 372.963 67.216C373.475 66.448 373.731 65.5093 373.731 64.4C373.731 63.7173 373.219 62.096 372.195 59.536C372.195 58.9387 372.409 58.0427 372.835 56.848C373.262 55.6533 373.731 54.9707 374.243 54.8L374.499 55.056C376.035 58.384 376.803 60.432 376.803 61.2C376.803 61.5413 376.761 61.712 376.675 61.712L374.883 64.784C380.771 59.4933 383.801 53.008 383.971 45.328C377.742 44.304 372.793 43.792 369.123 43.792C362.638 43.792 357.262 45.2 352.995 48.016L352.739 47.632L356.835 44.432C360.334 41.5307 365.71 40.08 372.963 40.08C374.414 40.08 376.035 40.1653 377.827 40.336C379.619 40.5067 381.582 40.7627 383.715 41.104C383.374 38.7147 382.777 36.5813 381.923 34.704C381.155 32.7413 380.174 30.9493 378.979 29.328C376.249 25.4027 372.963 23.44 369.123 23.44C368.611 23.44 367.929 23.568 367.075 23.824C366.307 24.08 365.71 24.208 365.283 24.208C365.027 24.208 364.899 24.1227 364.899 23.952C364.899 22.5867 366.478 21.904 369.635 21.904C374.243 21.904 378.083 24.0373 381.155 28.304C383.63 31.9733 385.123 36.2827 385.635 41.232C386.574 41.3173 387.683 41.488 388.963 41.744C390.329 41.9147 391.907 42.1707 393.699 42.512C395.15 37.0507 396.515 32.4 397.795 28.56C399.075 24.6347 400.27 21.4773 401.379 19.088C398.563 18.9173 395.449 18.5333 392.035 17.936C388.707 17.3387 385.081 16.6133 381.155 15.76L361.059 11.152C357.049 10.384 353.379 9.78666 350.051 9.35999C346.809 8.93333 343.865 8.71999 341.219 8.71999C334.649 8.71999 329.699 10.0427 326.371 12.688C323.726 14.8213 322.403 17.2107 322.403 19.856C322.403 24.464 325.646 26.768 332.131 26.768C332.387 26.768 332.515 26.8107 332.515 26.896C332.515 27.2373 331.449 27.4507 329.315 27.536C329.145 27.536 328.974 27.6213 328.803 27.792C328.633 27.8773 328.419 27.92 328.163 27.92C327.737 27.92 327.139 27.792 326.371 27.536C323.043 26.4267 321.379 24.1227 321.379 20.624C321.379 19.6853 321.507 18.704 321.763 17.68C322.105 16.656 322.617 15.6747 323.299 14.736C328.163 7.48266 335.886 3.856 346.467 3.856C348.601 3.856 350.862 4.02666 353.251 4.368C355.726 4.624 358.371 5.008 361.187 5.52C365.881 6.71466 371.726 8.08 378.723 9.616C385.806 11.152 394.083 12.9013 403.555 14.864L405.219 12.048C406.67 10 408.675 8.12266 411.235 6.41599C414.051 4.79466 416.611 3.98399 418.915 3.98399C420.11 3.98399 421.475 4.36799 423.011 5.13599C424.633 5.90399 425.443 6.88533 425.443 8.07999C425.443 9.01866 425.059 9.488 424.291 9.488C424.121 9.488 423.395 8.848 422.115 7.56799C421.006 6.20266 419.726 5.52 418.275 5.52C415.203 5.52 412.558 7.99466 410.339 12.944L409.187 15.376C410.297 15.4613 411.363 15.504 412.387 15.504C413.497 15.504 414.478 15.504 415.331 15.504C421.305 15.504 425.23 14.5227 427.107 12.56C428.643 10.768 429.411 8.76266 429.411 6.544C429.411 5.34933 429.07 4.28266 428.387 3.34399C427.705 2.32 427.363 1.808 427.363 1.808C427.363 1.38133 427.619 1.168 428.131 1.168C429.667 1.168 430.435 2.96 430.435 6.544C430.435 15.248 423.225 19.5573 408.803 19.472H407.779C407.438 20.24 406.627 22.6293 405.347 26.64C404.153 30.5653 402.446 36.0693 400.227 43.152H402.915C405.134 43.152 407.139 42.9387 408.931 42.512C410.809 42.0853 412.515 41.488 414.051 40.72C414.393 40.72 414.563 40.8053 414.563 40.976C414.563 42.3413 412.857 43.8347 409.443 45.456C408.163 45.968 406.798 46.3947 405.347 46.736C403.982 46.992 402.531 47.12 400.995 47.12C400.654 47.12 400.313 47.12 399.971 47.12C399.63 47.12 399.289 47.0773 398.947 46.992C396.558 54.7573 393.998 61.4987 391.267 67.216C388.622 72.848 385.891 77.5413 383.075 81.296C374.883 91.6213 364.601 96.784 352.227 96.784ZM444.713 91.536C436.095 91.536 431.785 85.1787 431.785 72.464C431.785 60.0053 435.881 46.48 444.073 31.888C452.095 17.3813 459.689 10.128 466.857 10.128C469.417 10.128 471.124 11.8773 471.977 15.376V17.04C471.977 23.184 467.241 33.552 457.769 48.144C453.759 54.4587 449.961 59.9627 446.377 64.656C442.879 69.3493 439.593 73.3173 436.521 76.56C437.545 84.24 441.087 88.08 447.145 88.08C450.815 88.08 453.929 87.056 456.489 85.008C459.049 82.8747 461.78 80.016 464.681 76.432C465.193 75.92 465.535 75.664 465.705 75.664C465.961 75.664 466.089 75.8773 466.089 76.304C466.089 76.9013 465.791 77.6693 465.193 78.608C461.524 83.3013 458.068 86.6293 454.825 88.592C451.583 90.5547 448.212 91.536 444.713 91.536ZM436.649 73.36C441.257 68.8373 447.273 59.8773 454.697 46.48C462.548 32.2293 466.473 22.416 466.473 17.04C466.473 14.6507 465.791 13.456 464.425 13.456C459.135 13.456 453.119 21.0507 446.377 36.24C443.22 43.7493 440.788 50.576 439.081 56.72C437.46 62.864 436.649 68.4107 436.649 73.36ZM488.597 92.304C485.439 92.304 483.861 90 483.861 85.392C483.861 84.1973 483.989 82.8747 484.245 81.424C484.501 79.9733 484.842 78.4373 485.269 76.816C486.122 73.8293 487.402 70.4587 489.109 66.704C491.669 61.4133 493.802 58.768 495.509 58.768C497.13 58.768 498.453 59.664 499.477 61.456C500.159 61.2 500.714 61.072 501.141 61.072C503.53 61.072 504.725 62.864 504.725 66.448C504.725 67.984 504.426 69.776 503.829 71.824C503.231 73.872 502.207 76.432 500.757 79.504C502.89 81.4667 504.981 82.448 507.029 82.448C508.65 82.448 510.186 82.064 511.637 81.296C513.087 80.4427 514.709 78.8213 516.501 76.432C516.671 76.2613 516.927 76.176 517.269 76.176C517.525 76.176 517.653 76.432 517.653 76.944C517.653 77.456 517.439 78.0107 517.013 78.608C515.903 80.0587 514.495 81.3813 512.789 82.576C511.167 83.6853 509.119 84.24 506.645 84.24C504.17 84.24 501.951 83.3867 499.989 81.68C496.746 88.7627 492.949 92.304 488.597 92.304ZM499.221 77.84C499.903 76.304 500.415 74.7253 500.757 73.104C501.098 71.4827 501.269 69.7333 501.269 67.856C501.269 64.9547 500.415 63.504 498.709 63.504C497.087 63.504 496.277 65.0827 496.277 68.24C496.277 69.6053 496.575 71.2693 497.173 73.232C497.855 75.1947 498.538 76.7307 499.221 77.84ZM490.901 88.72C492.095 88.72 493.589 87.568 495.381 85.264C496.149 84.3253 496.789 83.3867 497.301 82.448C497.813 81.424 498.154 80.7413 498.325 80.4C497.045 78.9493 495.935 77.4133 494.997 75.792C494.058 74.1707 493.503 72.5067 493.333 70.8C492.309 71.6533 491.242 73.872 490.133 77.456C489.023 81.04 488.469 83.6427 488.469 85.264C488.469 87.568 489.279 88.72 490.901 88.72ZM541.603 95.76C537.251 95.76 535.075 92.9867 535.075 87.44C535.075 84.0267 535.971 79.888 537.763 75.024C538.702 72.5493 539.683 70.4587 540.707 68.752C541.731 66.96 542.841 65.5093 544.035 64.4C545.315 63.12 546.595 62.48 547.875 62.48C548.899 62.48 549.411 62.7787 549.411 63.376C549.411 63.632 549.326 63.8453 549.155 64.016C548.046 65.3813 546.937 67.088 545.827 69.136C544.718 71.184 543.566 73.488 542.371 76.048C539.897 81.7653 538.659 86.0747 538.659 88.976C538.659 91.7067 539.683 93.072 541.731 93.072C546.169 93.072 551.459 86.7147 557.603 74C557.945 73.1467 558.286 72.2933 558.627 71.44C559.054 70.5013 559.566 69.4773 560.163 68.368C560.505 67.7707 561.23 67.472 562.339 67.472C563.705 67.472 564.473 68.0693 564.643 69.264C562.254 74.5547 561.059 78.992 561.059 82.576C561.059 84.112 561.315 85.3493 561.827 86.288C562.425 87.2267 563.193 87.696 564.131 87.696C565.155 87.696 566.179 87.056 567.203 85.776C568.313 84.496 569.294 82.9173 570.147 81.04C571.086 79.1627 571.811 77.328 572.323 75.536C572.921 73.744 573.219 72.3787 573.219 71.44C573.219 70.928 573.177 70.16 573.091 69.136C573.006 68.0267 572.963 67.2587 572.963 66.832C572.963 63.3333 573.774 61.584 575.395 61.584C576.931 61.584 577.699 63.0347 577.699 65.936C577.699 66.5333 577.529 67.5147 577.187 68.88C576.931 70.16 576.803 70.8853 576.803 71.056C576.889 72.7627 577.187 74.5547 577.699 76.432C578.211 78.224 579.065 79.76 580.259 81.04C581.539 82.32 583.246 82.96 585.379 82.96C586.574 82.96 588.025 82.4907 589.731 81.552C591.438 80.528 593.187 78.8213 594.979 76.432C595.15 76.2613 595.406 76.176 595.747 76.176C596.003 76.176 596.131 76.432 596.131 76.944C596.131 77.456 595.918 78.0107 595.491 78.608C594.382 80.144 592.931 81.5947 591.139 82.96C589.347 84.24 587.427 84.88 585.379 84.88C582.051 84.88 579.577 83.9413 577.955 82.064C576.419 80.1013 575.225 77.712 574.371 74.896C574.03 77.0293 573.347 79.3333 572.323 81.808C571.385 84.1973 570.147 86.288 568.611 88.08C567.075 89.7867 565.326 90.64 563.363 90.64C560.718 90.64 558.926 89.6587 557.987 87.696C557.134 85.7333 556.707 83.472 556.707 80.912C555.854 83.1307 554.531 85.392 552.739 87.696C550.947 90 549.027 91.92 546.979 93.456C545.017 94.992 543.225 95.76 541.603 95.76ZM628.275 91.024C624.777 91.024 621.747 90.0427 619.187 88.08C616.713 86.032 615.475 82.96 615.475 78.864C615.475 74.3413 616.969 69.6907 619.955 64.912C621.491 62.4373 623.369 60.4747 625.587 59.024C627.806 57.488 629.769 56.72 631.475 56.72C633.95 56.72 635.187 58.2133 635.187 61.2C635.187 63.76 633.481 66.8747 630.067 70.544C626.91 73.7867 623.923 76.0053 621.107 77.2C621.022 77.5413 620.937 77.9253 620.851 78.352C620.851 78.6933 620.851 79.0773 620.851 79.504C620.851 84.88 624.051 87.568 630.451 87.568C634.121 87.568 637.534 86.4587 640.691 84.24C643.934 81.936 646.75 79.3333 649.139 76.432C649.566 75.92 649.95 75.664 650.291 75.664C650.633 75.664 650.803 75.8347 650.803 76.176C650.803 76.5173 650.633 76.9867 650.291 77.584C649.95 78.096 649.694 78.4373 649.523 78.608C648.158 80.4853 646.707 82.1493 645.171 83.6C643.721 85.0507 641.758 86.4587 639.283 87.824C637.491 88.9333 635.614 89.744 633.651 90.256C631.774 90.768 629.982 91.024 628.275 91.024ZM621.619 74.512C622.729 73.9147 623.795 73.232 624.819 72.464C625.929 71.6107 626.995 70.6293 628.019 69.52C630.323 66.7893 631.475 64.4 631.475 62.352C631.475 61.072 631.091 60.432 630.323 60.432C629.641 60.432 628.745 61.0293 627.635 62.224C626.611 63.3333 625.63 64.7413 624.691 66.448C623.07 69.776 622.046 72.464 621.619 74.512ZM689.936 90.64C686.864 90.64 685.328 88.72 685.328 84.88C685.328 82.832 686.096 80.272 687.632 77.2C689.082 73.7867 689.808 71.312 689.808 69.776C689.808 68.6667 689.381 67.8133 688.528 67.216C687.76 66.6187 686.778 66.064 685.584 65.552C684.73 65.1253 683.834 64.6133 682.896 64.016C681.957 63.4187 681.189 62.8213 680.592 62.224C679.994 63.504 678.672 65.7227 676.624 68.88C674.576 72.0373 672.357 75.28 669.968 78.608C669.626 79.0347 669.285 79.248 668.944 79.248C668.602 79.248 668.432 78.9493 668.432 78.352C668.432 77.7547 668.773 77.1147 669.456 76.432C670.138 75.5787 671.12 74.2133 672.4 72.336C673.68 70.3733 674.96 68.2827 676.24 66.064C677.52 63.76 678.501 61.7547 679.184 60.048C678.757 58.5973 678.416 57.36 678.16 56.336C677.904 55.312 677.776 54.288 677.776 53.264C677.776 51.472 678.288 49.8507 679.312 48.4C680.336 46.9493 681.658 46.224 683.28 46.224C685.584 46.224 686.736 47.5893 686.736 50.32C686.736 53.3067 685.584 56.4213 683.28 59.664C683.621 60.176 684.048 60.6027 684.56 60.944C685.072 61.2853 685.882 61.6693 686.992 62.096C687.589 62.352 688.144 62.5227 688.656 62.608C689.253 62.6933 689.765 62.736 690.192 62.736C690.874 62.736 691.429 62.6933 691.856 62.608C692.368 62.5227 692.794 62.48 693.136 62.48C693.648 62.48 694.245 62.7787 694.928 63.376C695.696 63.888 696.08 64.6987 696.08 65.808C696.08 66.4053 696.037 66.7893 695.952 66.96C695.866 67.1307 695.61 67.856 695.184 69.136C694.842 70.3307 694.202 72.0373 693.264 74.256C691.557 78.6933 690.704 81.808 690.704 83.6C690.704 85.9893 691.514 87.184 693.136 87.184C694.928 87.184 697.061 86.1173 699.536 83.984C702.096 81.8507 704.442 79.3333 706.576 76.432C706.832 76.176 707.045 76.048 707.216 76.048C707.557 76.048 707.728 76.3467 707.728 76.944C707.728 77.5413 707.514 78.096 707.088 78.608C703.674 83.1307 700.602 86.288 697.872 88.08C695.141 89.7867 692.496 90.64 689.936 90.64Z" fill="#2754F2"/>
</svg>
